<?xml version="1.0" standalone="no"?>
<!DOCTYPE svg PUBLIC "-//W3C//DTD SVG 20010904//EN"
 "http://www.w3.org/TR/2001/REC-SVG-20010904/DTD/svg10.dtd">
<svg version="1.0" xmlns="http://www.w3.org/2000/svg"
 width="1000.000000pt" height="1000.000000pt" viewBox="0 0 1000.000000 1000.000000"
 preserveAspectRatio="xMidYMid meet">

<g transform="translate(0.000000,1000.000000) scale(0.100000,-0.100000)"
fill="#000000" stroke="none">
<path d="M1425 9979 c-176 -16 -403 -82 -560 -161 -72 -36 -185 -110 -316
-204 -50 -36 -207 -217 -280 -322 -26 -37 -77 -126 -113 -199 -54 -107 -71
-153 -91 -247 -59 -272 -55 -4 -55 -3810 0 -2251 4 -3531 10 -3597 25 -256 58
-384 142 -552 133 -266 252 -413 456 -562 145 -105 236 -153 422 -220 274
-100 -151 -90 3955 -90 4106 0 3689 -9 3964 90 183 66 258 103 341 170 36 28
92 71 125 95 106 77 166 139 250 258 157 224 214 350 283 622 l27 105 3 3555
c2 2506 0 3589 -8 3670 -18 192 -105 478 -182 597 -87 133 -217 299 -290 368
-73 69 -233 190 -338 256 -57 36 -199 90 -355 134 -204 58 26 55 -3792 54
-1930 -1 -3548 -5 -3598 -10z m7132 -130 c43 -6 142 -26 220 -45 121 -29 163
-45 285 -107 79 -40 161 -85 183 -99 55 -35 300 -288 357 -369 70 -98 112
-182 158 -309 58 -163 78 -249 90 -386 7 -82 10 -1211 8 -3629 l-4 -3510 -22
-90 c-33 -131 -117 -357 -157 -426 -63 -108 -146 -212 -274 -342 -120 -122
-130 -130 -245 -188 -67 -34 -147 -77 -178 -96 -66 -39 -257 -85 -427 -103
-70 -7 -1227 -10 -3588 -10 -3471 0 -3486 0 -3607 21 -244 41 -279 54 -506
182 -148 84 -186 113 -303 232 -164 166 -238 282 -324 505 -42 109 -45 125
-64 314 -19 193 -19 293 -16 3675 3 3935 -3 3640 80 3846 99 246 161 340 337
515 103 103 145 137 235 189 269 159 360 191 650 225 146 18 6988 22 7112 5z"/>
<path d="M2555 8108 c-3 -7 -4 -1412 -3 -3123 l3 -3110 645 0 645 0 3 1108 2
1107 907 0 908 0 270 41 270 41 170 88 c154 81 182 100 300 203 177 154 300
316 425 559 168 326 247 642 271 1086 11 188 10 199 -16 370 -14 98 -48 263
-74 367 -46 180 -53 198 -131 345 -57 108 -114 196 -189 293 -92 120 -125 154
-248 255 -123 101 -165 129 -310 204 -167 86 -169 87 -371 132 l-202 46 -1636
0 c-1298 0 -1636 -3 -1639 -12z m3021 -1144 c152 -42 243 -91 302 -161 65 -78
126 -183 156 -266 25 -69 29 -96 34 -230 6 -192 -6 -283 -63 -461 -48 -151
-79 -210 -181 -341 -117 -151 -186 -200 -345 -244 -74 -21 -92 -21 -852 -21
l-777 0 0 880 0 880 798 0 798 0 130 -36z"/>
</g>
</svg>
